<svg width="38" height="41" viewBox="0 0 38 41" fill="none" xmlns="http://www.w3.org/2000/svg">
<path d="M1.9 24.2815C-0.633332 22.3892 -0.633333 18.6014 1.9 16.7091L20.9063 2.52938C24.0382 0.195538 28.5063 2.419 28.5063 6.314L28.5063 34.6828C28.5063 38.581 24.0382 40.8045 20.9063 38.4675L1.9 24.2815ZM34.8333 1.57692C34.8333 1.1587 35.0001 0.757599 35.2971 0.461869C35.594 0.166138 35.9967 -1.57347e-06 36.4167 -1.59182e-06C36.8366 -1.61018e-06 37.2393 0.166138 37.5363 0.461869C37.8332 0.757599 38 1.1587 38 1.57692L38 39.4231C38 39.8413 37.8332 40.2424 37.5363 40.5381C37.2393 40.8339 36.8366 41 36.4167 41C35.9967 41 35.594 40.8339 35.2971 40.5381C35.0002 40.2424 34.8333 39.8413 34.8333 39.4231L34.8333 1.57692Z" fill="#FF58E4"/>
</svg>
