<svg width="167" height="135" viewBox="0 0 167 135" fill="none" xmlns="http://www.w3.org/2000/svg">
<g filter="url(#filter0_d_136_39)">
<path d="M144.553 42.4427C143.577 41.6393 142.393 41.1241 141.136 40.9559C139.879 40.7876 138.6 40.973 137.444 41.491L108.951 54.0877C108.428 54.3031 107.844 54.3255 107.306 54.1509C106.768 53.9763 106.311 53.6163 106.017 53.136L89.429 23.4077C88.8314 22.3723 87.9688 21.5119 86.9286 20.9135C85.8883 20.3151 84.7071 20 83.5047 20C82.3023 20 81.1212 20.3151 80.0809 20.9135C79.0406 21.5119 78.178 22.3723 77.5804 23.4077L60.9925 53.136C60.6987 53.6163 60.2413 53.9763 59.7031 54.1509C59.1649 54.3255 58.5815 54.3031 58.0585 54.0877L29.5092 41.491C28.3597 40.9688 27.0851 40.7792 25.8318 40.9441C24.5786 41.1089 23.3977 41.6215 22.4251 42.4228C21.4525 43.2242 20.7276 44.2817 20.3339 45.4737C19.9402 46.6658 19.8936 47.9439 20.1996 49.161L34.5307 109.793C34.9773 111.57 36.1129 113.099 37.6903 114.048C38.7331 114.661 39.9204 114.989 41.132 115C41.7624 114.989 42.3886 114.895 42.994 114.72C69.5083 107.48 97.5011 107.48 124.015 114.72C124.894 114.971 125.815 115.042 126.721 114.927C127.628 114.813 128.502 114.516 129.289 114.055C130.076 113.594 130.76 112.978 131.299 112.245C131.838 111.512 132.22 110.678 132.422 109.793L146.81 49.161C147.108 47.9439 147.055 46.668 146.655 45.4797C146.256 44.2914 145.528 43.2388 144.553 42.4427ZM142.409 48.1533L128.021 108.786C127.96 109.076 127.838 109.351 127.663 109.592C127.488 109.833 127.264 110.035 127.006 110.185C126.737 110.345 126.438 110.447 126.127 110.486C125.816 110.524 125.5 110.498 125.2 110.409C97.8932 102.944 69.0598 102.944 41.7527 110.409C41.1617 110.563 40.5333 110.479 40.0048 110.175C39.4762 109.87 39.0904 109.371 38.9316 108.786L24.6005 48.1533C24.487 47.7498 24.4961 47.3221 24.6265 46.9237C24.757 46.5253 25.0031 46.174 25.334 45.9139C25.7445 45.5671 26.262 45.3696 26.8009 45.354C27.1128 45.3753 27.4184 45.4511 27.7037 45.5779L56.253 58.1747C57.8053 58.8596 59.5604 58.9404 61.1699 58.4011C62.7794 57.8618 64.1259 56.7419 64.942 55.2634L81.5299 25.5911C81.7365 25.2552 82.0266 24.9776 82.3724 24.785C82.7182 24.5924 83.1081 24.4912 83.5047 24.4912C83.9013 24.4912 84.2912 24.5924 84.637 24.785C84.9828 24.9776 85.2729 25.2552 85.4795 25.5911L102.067 55.2634C102.884 56.7419 104.23 57.8618 105.84 58.4011C107.449 58.9404 109.204 58.8596 110.756 58.1747L139.306 45.5779C139.693 45.4078 140.12 45.3491 140.539 45.4085C140.958 45.4679 141.352 45.643 141.675 45.9139C142.006 46.174 142.252 46.5253 142.383 46.9237C142.513 47.3221 142.522 47.7498 142.409 48.1533Z" fill="#FF58E4"/>
</g>
<defs>
<filter id="filter0_d_136_39" x="0" y="0" width="167" height="135" filterUnits="userSpaceOnUse" color-interpolation-filters="sRGB">
<feFlood flood-opacity="0" result="BackgroundImageFix"/>
<feColorMatrix in="SourceAlpha" type="matrix" values="0 0 0 0 0 0 0 0 0 0 0 0 0 0 0 0 0 0 127 0" result="hardAlpha"/>
<feOffset/>
<feGaussianBlur stdDeviation="10"/>
<feComposite in2="hardAlpha" operator="out"/>
<feColorMatrix type="matrix" values="0 0 0 0 1 0 0 0 0 0.345098 0 0 0 0 0.894118 0 0 0 1 0"/>
<feBlend mode="normal" in2="BackgroundImageFix" result="effect1_dropShadow_136_39"/>
<feBlend mode="normal" in="SourceGraphic" in2="effect1_dropShadow_136_39" result="shape"/>
</filter>
</defs>
</svg>
