<svg width="41" height="40" viewBox="0 0 41 40" fill="none" xmlns="http://www.w3.org/2000/svg">
<path fill-rule="evenodd" clip-rule="evenodd" d="M0 20C0 8.95431 9.17816 0 20.5 0C31.8218 0 41 8.95431 41 20C41 31.0457 31.8218 40 20.5 40C9.17816 40 0 31.0457 0 20ZM20.5 10C26.1375 10 30.75 14.5 30.75 20C30.75 25 27.0344 29.25 21.9094 30V22.875H24.3438L24.8562 20H22.0375V18.125C22.0375 17.375 22.4219 16.625 23.7031 16.625H24.9844V14.125C24.9844 14.125 23.8313 13.875 22.6781 13.875C20.3719 13.875 18.8344 15.25 18.8344 17.75V20H16.2719V22.875H18.8344V29.875C13.9656 29.125 10.25 25 10.25 20C10.25 14.5 14.8625 10 20.5 10Z" fill="#FF58E4"/>
</svg>
