<svg width="41" height="40" viewBox="0 0 41 40" fill="none" xmlns="http://www.w3.org/2000/svg">
<path d="M20.5 23.5C18.5781 23.5 16.9125 22 16.9125 20C16.9125 18.125 18.45 16.5 20.5 16.5C22.4219 16.5 24.0875 18 24.0875 20C24.0875 21.875 22.4219 23.5 20.5 23.5Z" fill="#FF58E4"/>
<path fill-rule="evenodd" clip-rule="evenodd" d="M24.8562 11.5H16.1438C15.1188 11.625 14.6063 11.75 14.2219 11.875C13.7094 12 13.325 12.25 12.9406 12.625C12.6365 12.9217 12.4928 13.2185 12.3191 13.5771C12.2733 13.6717 12.2253 13.7707 12.1719 13.875C12.1521 13.933 12.1292 13.994 12.1046 14.0594C11.9706 14.4167 11.7875 14.9047 11.7875 15.75V24.25C11.9156 25.25 12.0437 25.75 12.1719 26.125C12.3 26.625 12.5563 27 12.9406 27.375C13.2448 27.6717 13.5489 27.8119 13.9166 27.9814C14.0135 28.0261 14.1149 28.0728 14.2219 28.125C14.2813 28.1443 14.3439 28.1667 14.4109 28.1906C14.7771 28.3214 15.2773 28.5 16.1438 28.5H24.8562C25.8812 28.375 26.3938 28.25 26.7781 28.125C27.2906 28 27.675 27.75 28.0594 27.375C28.3635 27.0783 28.5072 26.7815 28.6809 26.4229C28.7267 26.3283 28.7747 26.2293 28.8281 26.125C28.8479 26.067 28.8708 26.006 28.8954 25.9406C29.0294 25.5833 29.2125 25.0953 29.2125 24.25V15.75C29.0844 14.75 28.9563 14.25 28.8281 13.875C28.7 13.375 28.4437 13 28.0594 12.625C27.7552 12.3283 27.4511 12.1881 27.0834 12.0186C26.9866 11.974 26.8849 11.9271 26.7781 11.875C26.7187 11.8557 26.6561 11.8333 26.5891 11.8094C26.2229 11.6786 25.7227 11.5 24.8562 11.5ZM20.5 14.625C17.425 14.625 14.9906 17 14.9906 20C14.9906 23 17.425 25.375 20.5 25.375C23.575 25.375 26.0094 23 26.0094 20C26.0094 17 23.575 14.625 20.5 14.625ZM27.4187 14.5C27.4187 15.1904 26.8451 15.75 26.1375 15.75C25.4299 15.75 24.8562 15.1904 24.8562 14.5C24.8562 13.8096 25.4299 13.25 26.1375 13.25C26.8451 13.25 27.4187 13.8096 27.4187 14.5Z" fill="#FF58E4"/>
<path fill-rule="evenodd" clip-rule="evenodd" d="M0 20C0 8.95431 9.17816 0 20.5 0C31.8218 0 41 8.95431 41 20C41 31.0457 31.8218 40 20.5 40C9.17816 40 0 31.0457 0 20ZM16.1438 9.625H24.8562C26.0094 9.75 26.7781 9.875 27.4187 10.125C28.1875 10.5 28.7 10.75 29.3406 11.375C29.9812 12 30.3656 12.625 30.6219 13.25C30.8781 13.875 31.1344 14.625 31.1344 15.75V24.25C31.0062 25.375 30.8781 26.125 30.6219 26.75C30.2375 27.5 29.9812 28 29.3406 28.625C28.7 29.25 28.0594 29.625 27.4187 29.875C26.7781 30.125 26.0094 30.375 24.8562 30.375H16.1438C14.9906 30.25 14.2219 30.125 13.5813 29.875C12.8125 29.5 12.3 29.25 11.6594 28.625C11.0188 28 10.6344 27.375 10.3781 26.75C10.1219 26.125 9.86562 25.375 9.86562 24.25V15.75C9.99375 14.625 10.1219 13.875 10.3781 13.25C10.7625 12.5 11.0188 12 11.6594 11.375C12.3 10.75 12.9406 10.375 13.5813 10.125C14.2219 9.875 14.9906 9.625 16.1438 9.625Z" fill="#FF58E4"/>
</svg>
