<svg width="41" height="40" viewBox="0 0 41 40" fill="none" xmlns="http://www.w3.org/2000/svg">
<path d="M15.8025 16.25H14.3073C13.8802 16.25 13.7947 16.4462 13.7947 16.6624C13.7947 17.0487 14.3016 18.9645 16.1549 21.4983C17.3904 23.2287 19.1311 24.1667 20.7151 24.1667C21.6655 24.1667 21.783 23.9583 21.783 23.5995V22.2917C21.783 21.875 21.8731 21.7918 22.174 21.7918C22.3958 21.7918 22.7759 21.9 23.663 22.7343C23.9648 23.0286 24.1915 23.2747 24.3762 23.4751C24.8119 23.9478 25.0136 24.1667 25.4141 24.1667H26.9092C27.3364 24.1667 27.55 23.9583 27.4268 23.5472C27.2919 23.1375 26.8079 22.5429 26.1657 21.8382C25.989 21.6345 25.7675 21.4229 25.5714 21.2356C25.3808 21.0534 25.2142 20.8942 25.1361 20.7876C24.9143 20.5095 24.9777 20.3859 25.1361 20.1387C25.1361 20.1387 26.9577 17.6358 27.1478 16.7861C27.2428 16.477 27.1478 16.25 26.6956 16.25H25.2005C24.8203 16.25 24.6451 16.4462 24.55 16.6624C24.55 16.6624 23.7897 18.4701 22.7126 19.6443C22.3641 19.9842 22.2057 20.0923 22.0156 20.0923C21.9206 20.0923 21.783 19.9842 21.783 19.6752V16.7861C21.783 16.4153 21.6727 16.25 21.3558 16.25H19.0063C18.7688 16.25 18.6259 16.4221 18.6259 16.5852C18.6259 16.7194 18.7044 16.8142 18.8045 16.9351C18.9667 17.1309 19.1856 17.3953 19.2199 18.0066V20.1542C19.2199 20.625 19.1327 20.7104 18.9427 20.7104C18.4358 20.7104 17.2029 18.8946 16.4716 16.817C16.3283 16.4131 16.1846 16.25 15.8025 16.25Z" fill="#FF58E4"/>
<path fill-rule="evenodd" clip-rule="evenodd" d="M20.5 0C31.8218 0 41 8.95431 41 20C41 31.0457 31.8218 40 20.5 40C9.17816 40 0 31.0457 0 20C0 8.95431 9.17816 0 20.5 0ZM10.25 19.5833C10.25 15.0657 10.25 12.8069 11.6885 11.4034C13.1271 10 15.4424 10 20.0729 10H20.9271C25.5576 10 27.873 10 29.3115 11.4034C30.75 12.8069 30.75 15.0657 30.75 19.5833V20.4167C30.75 24.9343 30.75 27.1931 29.3115 28.5965C27.873 30 25.5576 30 20.9271 30H20.0729C15.4424 30 13.1271 30 11.6885 28.5965C10.25 27.1931 10.25 24.9343 10.25 20.4167V19.5833Z" fill="#FF58E4"/>
</svg>
